<mxfile host="app.diagrams.net" modified="2023-01-28T10:52:36.693Z" agent="5.0 (Macintosh; Intel Mac OS X 10_15_7) AppleWebKit/537.36 (KHTML, like Gecko) Chrome/109.0.0.0 Safari/537.36" etag="WNJzy_RBnd5JwozVzn4C" version="20.0.1" type="github">
  <diagram id="C5RBs43oDa-KdzZeNtuy" name="Page-1">
    <mxGraphModel dx="2393" dy="2183" grid="1" gridSize="10" guides="1" tooltips="1" connect="1" arrows="1" fold="1" page="1" pageScale="1" pageWidth="827" pageHeight="1169" background="#F1FAEE" math="0" shadow="0">
      <root>
        <mxCell id="WIyWlLk6GJQsqaUBKTNV-0" />
        <mxCell id="WIyWlLk6GJQsqaUBKTNV-1" parent="WIyWlLk6GJQsqaUBKTNV-0" />
        <mxCell id="5PsMOc1oZoJgJ5Payypp-0" value="&lt;h1&gt;Socket connection&lt;/h1&gt;&lt;p&gt;Flowchart conceptualizing how an HTTP server works&lt;/p&gt;" style="text;html=1;strokeColor=none;fillColor=none;spacing=5;spacingTop=-20;whiteSpace=wrap;overflow=hidden;rounded=0;sketch=0;fontColor=#1D3557;" vertex="1" parent="WIyWlLk6GJQsqaUBKTNV-1">
          <mxGeometry x="-30" y="-140" width="190" height="120" as="geometry" />
        </mxCell>
        <mxCell id="5PsMOc1oZoJgJ5Payypp-17" style="edgeStyle=orthogonalEdgeStyle;curved=0;rounded=1;sketch=0;orthogonalLoop=1;jettySize=auto;html=1;fontColor=#1D3557;strokeColor=#457B9D;fillColor=#A8DADC;" edge="1" parent="WIyWlLk6GJQsqaUBKTNV-1" source="5PsMOc1oZoJgJ5Payypp-1" target="5PsMOc1oZoJgJ5Payypp-13">
          <mxGeometry relative="1" as="geometry" />
        </mxCell>
        <mxCell id="5PsMOc1oZoJgJ5Payypp-1" value="1. Create socket" style="rounded=1;whiteSpace=wrap;html=1;fontSize=12;glass=0;strokeWidth=1;shadow=0;fillColor=#A8DADC;strokeColor=#457B9D;fontColor=#1D3557;" vertex="1" parent="WIyWlLk6GJQsqaUBKTNV-1">
          <mxGeometry x="37.5" width="120" height="40" as="geometry" />
        </mxCell>
        <mxCell id="5PsMOc1oZoJgJ5Payypp-20" style="edgeStyle=orthogonalEdgeStyle;curved=0;rounded=1;sketch=0;orthogonalLoop=1;jettySize=auto;html=1;entryX=0.5;entryY=0;entryDx=0;entryDy=0;fontColor=#1D3557;strokeColor=#457B9D;fillColor=#A8DADC;startArrow=none;" edge="1" parent="WIyWlLk6GJQsqaUBKTNV-1" source="5PsMOc1oZoJgJ5Payypp-21" target="5PsMOc1oZoJgJ5Payypp-18">
          <mxGeometry relative="1" as="geometry" />
        </mxCell>
        <mxCell id="5PsMOc1oZoJgJ5Payypp-2" value="2. Identify socket" style="rounded=1;whiteSpace=wrap;html=1;fontSize=12;glass=0;strokeWidth=1;shadow=0;fillColor=#A8DADC;strokeColor=#457B9D;fontColor=#1D3557;" vertex="1" parent="WIyWlLk6GJQsqaUBKTNV-1">
          <mxGeometry x="387.5" width="120" height="40" as="geometry" />
        </mxCell>
        <mxCell id="5PsMOc1oZoJgJ5Payypp-43" style="edgeStyle=orthogonalEdgeStyle;curved=0;rounded=1;sketch=0;orthogonalLoop=1;jettySize=auto;html=1;entryX=0.5;entryY=0;entryDx=0;entryDy=0;fontColor=#1D3557;strokeColor=#457B9D;fillColor=#A8DADC;" edge="1" parent="WIyWlLk6GJQsqaUBKTNV-1" source="5PsMOc1oZoJgJ5Payypp-3" target="5PsMOc1oZoJgJ5Payypp-41">
          <mxGeometry relative="1" as="geometry" />
        </mxCell>
        <mxCell id="5PsMOc1oZoJgJ5Payypp-3" value="Waiting for connection (server)" style="rounded=1;whiteSpace=wrap;html=1;fontSize=12;glass=0;strokeWidth=1;shadow=0;fillColor=#A8DADC;strokeColor=#457B9D;fontColor=#1D3557;" vertex="1" parent="WIyWlLk6GJQsqaUBKTNV-1">
          <mxGeometry x="740" width="120" height="40" as="geometry" />
        </mxCell>
        <mxCell id="5PsMOc1oZoJgJ5Payypp-68" style="edgeStyle=orthogonalEdgeStyle;curved=0;rounded=1;sketch=0;orthogonalLoop=1;jettySize=auto;html=1;entryX=0.5;entryY=0;entryDx=0;entryDy=0;fontColor=#1D3557;strokeColor=#d6b656;fillColor=#fff2cc;" edge="1" parent="WIyWlLk6GJQsqaUBKTNV-1" source="5PsMOc1oZoJgJ5Payypp-4" target="5PsMOc1oZoJgJ5Payypp-67">
          <mxGeometry relative="1" as="geometry" />
        </mxCell>
        <mxCell id="5PsMOc1oZoJgJ5Payypp-4" value="Send/Receive" style="rounded=1;whiteSpace=wrap;html=1;fontSize=12;glass=0;strokeWidth=1;shadow=0;fillColor=#fff2cc;strokeColor=#d6b656;" vertex="1" parent="WIyWlLk6GJQsqaUBKTNV-1">
          <mxGeometry x="1050" width="120" height="40" as="geometry" />
        </mxCell>
        <mxCell id="5PsMOc1oZoJgJ5Payypp-88" style="edgeStyle=orthogonalEdgeStyle;curved=0;rounded=1;sketch=0;orthogonalLoop=1;jettySize=auto;html=1;entryX=0.929;entryY=0.5;entryDx=0;entryDy=0;entryPerimeter=0;fontColor=#000000;strokeColor=#d6b656;fillColor=#fff2cc;" edge="1" parent="WIyWlLk6GJQsqaUBKTNV-1" source="5PsMOc1oZoJgJ5Payypp-5" target="5PsMOc1oZoJgJ5Payypp-84">
          <mxGeometry relative="1" as="geometry">
            <Array as="points">
              <mxPoint x="1110" y="610" />
            </Array>
          </mxGeometry>
        </mxCell>
        <mxCell id="5PsMOc1oZoJgJ5Payypp-5" value="close(socket)" style="rounded=1;whiteSpace=wrap;html=1;fontSize=12;glass=0;strokeWidth=1;shadow=0;fillColor=#fff2cc;strokeColor=#d6b656;" vertex="1" parent="WIyWlLk6GJQsqaUBKTNV-1">
          <mxGeometry x="1050" y="365" width="120" height="40" as="geometry" />
        </mxCell>
        <mxCell id="5PsMOc1oZoJgJ5Payypp-24" style="edgeStyle=orthogonalEdgeStyle;curved=0;rounded=1;sketch=0;orthogonalLoop=1;jettySize=auto;html=1;entryX=0;entryY=0.5;entryDx=0;entryDy=0;fontColor=#1D3557;strokeColor=#457B9D;fillColor=#A8DADC;startArrow=none;" edge="1" parent="WIyWlLk6GJQsqaUBKTNV-1" source="5PsMOc1oZoJgJ5Payypp-25" target="5PsMOc1oZoJgJ5Payypp-2">
          <mxGeometry relative="1" as="geometry">
            <mxPoint x="280" y="240" as="sourcePoint" />
            <Array as="points">
              <mxPoint x="290" y="20" />
            </Array>
          </mxGeometry>
        </mxCell>
        <mxCell id="5PsMOc1oZoJgJ5Payypp-13" value="socket(domain, type, protocol)" style="swimlane;fontStyle=1;childLayout=stackLayout;horizontal=1;startSize=30;horizontalStack=0;resizeParent=1;resizeParentMax=0;resizeLast=0;collapsible=1;marginBottom=0;rounded=0;sketch=0;fontColor=#1D3557;strokeColor=#457B9D;fillColor=#A8DADC;" vertex="1" parent="WIyWlLk6GJQsqaUBKTNV-1">
          <mxGeometry x="-30" y="160" width="255" height="160" as="geometry" />
        </mxCell>
        <mxCell id="5PsMOc1oZoJgJ5Payypp-15" value="&#xa;- domain: AF_INET(6), AF_UNIX, AF_ISO&#xa;&#xa;- type: SOCK_STREAM, SOCK_DGRAM, SOCK_RAW&#xa;&#xa;- protocol: if using AF_INET + SOCK_STREAM, then 0&#xa;" style="text;strokeColor=none;fillColor=none;align=left;verticalAlign=middle;spacingLeft=4;spacingRight=4;overflow=hidden;points=[[0,0.5],[1,0.5]];portConstraint=eastwest;rotatable=0;rounded=0;sketch=0;fontColor=#1D3557;fontStyle=0;whiteSpace=wrap;" vertex="1" parent="5PsMOc1oZoJgJ5Payypp-13">
          <mxGeometry y="30" width="255" height="130" as="geometry" />
        </mxCell>
        <mxCell id="5PsMOc1oZoJgJ5Payypp-33" style="edgeStyle=orthogonalEdgeStyle;curved=0;rounded=1;sketch=0;orthogonalLoop=1;jettySize=auto;html=1;entryX=0.5;entryY=0.106;entryDx=0;entryDy=0;entryPerimeter=0;fontColor=#1D3557;strokeColor=#457B9D;fillColor=#A8DADC;" edge="1" parent="WIyWlLk6GJQsqaUBKTNV-1" source="5PsMOc1oZoJgJ5Payypp-18" target="5PsMOc1oZoJgJ5Payypp-32">
          <mxGeometry relative="1" as="geometry" />
        </mxCell>
        <mxCell id="5PsMOc1oZoJgJ5Payypp-18" value="struct sockaddr_in" style="swimlane;fontStyle=1;childLayout=stackLayout;horizontal=1;startSize=30;horizontalStack=0;resizeParent=1;resizeParentMax=0;resizeLast=0;collapsible=1;marginBottom=0;rounded=0;sketch=0;fontColor=#1D3557;strokeColor=#457B9D;fillColor=#A8DADC;" vertex="1" parent="WIyWlLk6GJQsqaUBKTNV-1">
          <mxGeometry x="320" y="160" width="255" height="160" as="geometry" />
        </mxCell>
        <mxCell id="5PsMOc1oZoJgJ5Payypp-29" value="struct sockaddr_in &#xa;{ &#xa;    __uint8_t            sin_len; &#xa;    sa_family_t         sin_family;  // AF_INET&#xa;    in_port_t             sin_port; &#xa;    struct in_addr     sin_addr; // INADDR_ANY&#xa;    char                    sin_zero[8]; &#xa;};" style="text;strokeColor=none;fillColor=none;align=left;verticalAlign=middle;spacingLeft=4;spacingRight=4;overflow=hidden;points=[[0,0.5],[1,0.5]];portConstraint=eastwest;rotatable=0;rounded=0;sketch=0;fontColor=#1D3557;fontStyle=0;whiteSpace=wrap;" vertex="1" parent="5PsMOc1oZoJgJ5Payypp-18">
          <mxGeometry y="30" width="255" height="130" as="geometry" />
        </mxCell>
        <mxCell id="5PsMOc1oZoJgJ5Payypp-36" style="edgeStyle=orthogonalEdgeStyle;curved=0;rounded=1;sketch=0;orthogonalLoop=1;jettySize=auto;html=1;entryX=0;entryY=0.5;entryDx=0;entryDy=0;fontColor=#1D3557;strokeColor=#457B9D;fillColor=#A8DADC;startArrow=none;" edge="1" parent="WIyWlLk6GJQsqaUBKTNV-1" source="5PsMOc1oZoJgJ5Payypp-39" target="5PsMOc1oZoJgJ5Payypp-3">
          <mxGeometry relative="1" as="geometry">
            <mxPoint x="650" y="20" as="sourcePoint" />
            <Array as="points">
              <mxPoint x="620" y="20" />
            </Array>
          </mxGeometry>
        </mxCell>
        <mxCell id="5PsMOc1oZoJgJ5Payypp-22" value="int bind(socket, address, address_len)" style="swimlane;fontStyle=1;childLayout=stackLayout;horizontal=1;startSize=30;horizontalStack=0;resizeParent=1;resizeParentMax=0;resizeLast=0;collapsible=1;marginBottom=0;rounded=0;sketch=0;fontColor=#1D3557;strokeColor=#457B9D;fillColor=#A8DADC;" vertex="1" parent="WIyWlLk6GJQsqaUBKTNV-1">
          <mxGeometry x="320" y="470" width="255" height="90" as="geometry" />
        </mxCell>
        <mxCell id="5PsMOc1oZoJgJ5Payypp-35" value="- socket: ID of created socket&#xa;- address: prefilled struct with info&#xa;- address_len: size of portability" style="text;strokeColor=none;fillColor=none;align=left;verticalAlign=middle;spacingLeft=4;spacingRight=4;overflow=hidden;points=[[0,0.5],[1,0.5]];portConstraint=eastwest;rotatable=0;rounded=0;sketch=0;fontColor=#1D3557;fontStyle=0;whiteSpace=wrap;" vertex="1" parent="5PsMOc1oZoJgJ5Payypp-22">
          <mxGeometry y="30" width="255" height="60" as="geometry" />
        </mxCell>
        <mxCell id="5PsMOc1oZoJgJ5Payypp-21" value="Assigning port number to socket" style="text;html=1;strokeColor=none;fillColor=none;align=center;verticalAlign=middle;whiteSpace=wrap;rounded=0;sketch=0;fontColor=#1D3557;labelBackgroundColor=#D5E8D4;" vertex="1" parent="WIyWlLk6GJQsqaUBKTNV-1">
          <mxGeometry x="401.25" y="70" width="92.5" height="30" as="geometry" />
        </mxCell>
        <mxCell id="5PsMOc1oZoJgJ5Payypp-27" value="" style="edgeStyle=orthogonalEdgeStyle;curved=0;rounded=1;sketch=0;orthogonalLoop=1;jettySize=auto;html=1;entryX=0.5;entryY=0;entryDx=0;entryDy=0;fontColor=#1D3557;strokeColor=#457B9D;fillColor=#A8DADC;endArrow=none;" edge="1" parent="WIyWlLk6GJQsqaUBKTNV-1" source="5PsMOc1oZoJgJ5Payypp-2" target="5PsMOc1oZoJgJ5Payypp-21">
          <mxGeometry relative="1" as="geometry">
            <mxPoint x="447.5" y="40" as="sourcePoint" />
            <mxPoint x="447.5" y="160" as="targetPoint" />
          </mxGeometry>
        </mxCell>
        <mxCell id="5PsMOc1oZoJgJ5Payypp-34" style="edgeStyle=orthogonalEdgeStyle;curved=0;rounded=1;sketch=0;orthogonalLoop=1;jettySize=auto;html=1;entryX=0.5;entryY=0;entryDx=0;entryDy=0;fontColor=#1D3557;strokeColor=#457B9D;fillColor=#A8DADC;" edge="1" parent="WIyWlLk6GJQsqaUBKTNV-1" source="5PsMOc1oZoJgJ5Payypp-32" target="5PsMOc1oZoJgJ5Payypp-22">
          <mxGeometry relative="1" as="geometry" />
        </mxCell>
        <mxCell id="5PsMOc1oZoJgJ5Payypp-32" value="htonl and htons for compatibility" style="ellipse;shape=cloud;whiteSpace=wrap;html=1;rounded=0;sketch=0;fontColor=#1D3557;strokeColor=#457B9D;fillColor=#A8DADC;" vertex="1" parent="WIyWlLk6GJQsqaUBKTNV-1">
          <mxGeometry x="366.25" y="340" width="162.5" height="90" as="geometry" />
        </mxCell>
        <mxCell id="5PsMOc1oZoJgJ5Payypp-38" value="" style="edgeStyle=orthogonalEdgeStyle;curved=0;rounded=1;sketch=0;orthogonalLoop=1;jettySize=auto;html=1;entryX=0;entryY=0.5;entryDx=0;entryDy=0;fontColor=#1D3557;strokeColor=#457B9D;fillColor=#A8DADC;endArrow=none;" edge="1" parent="WIyWlLk6GJQsqaUBKTNV-1" source="5PsMOc1oZoJgJ5Payypp-22">
          <mxGeometry relative="1" as="geometry">
            <mxPoint x="575" y="515" as="sourcePoint" />
            <mxPoint x="650" y="20" as="targetPoint" />
            <Array as="points">
              <mxPoint x="620" y="515" />
            </Array>
          </mxGeometry>
        </mxCell>
        <mxCell id="5PsMOc1oZoJgJ5Payypp-39" value="bound&lt;br&gt;socket" style="text;html=1;strokeColor=none;fillColor=none;align=center;verticalAlign=middle;whiteSpace=wrap;rounded=0;sketch=0;fontColor=#1D3557;labelBackgroundColor=#D5E8D4;" vertex="1" parent="WIyWlLk6GJQsqaUBKTNV-1">
          <mxGeometry x="637" y="5" width="60" height="30" as="geometry" />
        </mxCell>
        <mxCell id="5PsMOc1oZoJgJ5Payypp-40" value="" style="edgeStyle=orthogonalEdgeStyle;curved=0;rounded=1;sketch=0;orthogonalLoop=1;jettySize=auto;html=1;entryX=0;entryY=0.5;entryDx=0;entryDy=0;fontColor=#1D3557;strokeColor=#457B9D;fillColor=#A8DADC;startArrow=none;endArrow=none;" edge="1" parent="WIyWlLk6GJQsqaUBKTNV-1" target="5PsMOc1oZoJgJ5Payypp-39">
          <mxGeometry relative="1" as="geometry">
            <mxPoint x="650" y="20" as="sourcePoint" />
            <mxPoint x="730" y="20" as="targetPoint" />
            <Array as="points" />
          </mxGeometry>
        </mxCell>
        <mxCell id="5PsMOc1oZoJgJ5Payypp-54" style="edgeStyle=orthogonalEdgeStyle;curved=0;rounded=1;sketch=0;orthogonalLoop=1;jettySize=auto;html=1;entryX=0.5;entryY=0.111;entryDx=0;entryDy=0;entryPerimeter=0;fontColor=#1D3557;strokeColor=#457B9D;fillColor=#A8DADC;" edge="1" parent="WIyWlLk6GJQsqaUBKTNV-1" source="5PsMOc1oZoJgJ5Payypp-41" target="5PsMOc1oZoJgJ5Payypp-53">
          <mxGeometry relative="1" as="geometry" />
        </mxCell>
        <mxCell id="5PsMOc1oZoJgJ5Payypp-41" value="listen(socket, backlog)" style="swimlane;fontStyle=1;childLayout=stackLayout;horizontal=1;startSize=30;horizontalStack=0;resizeParent=1;resizeParentMax=0;resizeLast=0;collapsible=1;marginBottom=0;rounded=0;sketch=0;fontColor=#1D3557;strokeColor=#457B9D;fillColor=#A8DADC;" vertex="1" parent="WIyWlLk6GJQsqaUBKTNV-1">
          <mxGeometry x="672.5" y="160" width="255" height="90" as="geometry" />
        </mxCell>
        <mxCell id="5PsMOc1oZoJgJ5Payypp-46" value="- socket: socket ID&#xa;- backlog: defines maximum number of pending connections before refusing" style="text;strokeColor=none;fillColor=none;align=left;verticalAlign=middle;spacingLeft=4;spacingRight=4;overflow=hidden;points=[[0,0.5],[1,0.5]];portConstraint=eastwest;rotatable=0;rounded=0;sketch=0;fontColor=#1D3557;fontStyle=0;whiteSpace=wrap;" vertex="1" parent="5PsMOc1oZoJgJ5Payypp-41">
          <mxGeometry y="30" width="255" height="60" as="geometry" />
        </mxCell>
        <mxCell id="5PsMOc1oZoJgJ5Payypp-44" value="tells socket can accept connections" style="text;html=1;strokeColor=none;fillColor=none;align=center;verticalAlign=middle;whiteSpace=wrap;rounded=0;labelBackgroundColor=#D5E8D4;sketch=0;fontColor=#1D3557;" vertex="1" parent="WIyWlLk6GJQsqaUBKTNV-1">
          <mxGeometry x="745" y="70" width="110" height="30" as="geometry" />
        </mxCell>
        <mxCell id="5PsMOc1oZoJgJ5Payypp-63" style="edgeStyle=orthogonalEdgeStyle;curved=0;rounded=1;sketch=0;orthogonalLoop=1;jettySize=auto;html=1;entryX=0;entryY=0.5;entryDx=0;entryDy=0;fontColor=#FFF4C3;strokeColor=#d6b656;fillColor=#fff2cc;" edge="1" parent="WIyWlLk6GJQsqaUBKTNV-1" source="5PsMOc1oZoJgJ5Payypp-47" target="5PsMOc1oZoJgJ5Payypp-4">
          <mxGeometry relative="1" as="geometry">
            <Array as="points">
              <mxPoint x="970" y="515" />
              <mxPoint x="970" y="20" />
            </Array>
          </mxGeometry>
        </mxCell>
        <mxCell id="5PsMOc1oZoJgJ5Payypp-47" value="accept(socket, address, address_len)" style="swimlane;fontStyle=1;childLayout=stackLayout;horizontal=1;startSize=30;horizontalStack=0;resizeParent=1;resizeParentMax=0;resizeLast=0;collapsible=1;marginBottom=0;rounded=0;sketch=0;strokeColor=#d6b656;fillColor=#fff2cc;" vertex="1" parent="WIyWlLk6GJQsqaUBKTNV-1">
          <mxGeometry x="672.5" y="470" width="255" height="90" as="geometry" />
        </mxCell>
        <mxCell id="5PsMOc1oZoJgJ5Payypp-48" value="- socket: bound socket&#xa;- address: address structure&#xa;- address_len: length" style="text;strokeColor=none;fillColor=none;align=left;verticalAlign=middle;spacingLeft=4;spacingRight=4;overflow=hidden;points=[[0,0.5],[1,0.5]];portConstraint=eastwest;rotatable=0;rounded=0;sketch=0;fontColor=#1D3557;fontStyle=0;whiteSpace=wrap;" vertex="1" parent="5PsMOc1oZoJgJ5Payypp-47">
          <mxGeometry y="30" width="255" height="60" as="geometry" />
        </mxCell>
        <mxCell id="5PsMOc1oZoJgJ5Payypp-50" value="creates a new socket for first item in queue" style="text;html=1;strokeColor=none;fillColor=none;align=center;verticalAlign=middle;whiteSpace=wrap;rounded=0;labelBackgroundColor=#D5E8D4;sketch=0;fontColor=#1D3557;" vertex="1" parent="WIyWlLk6GJQsqaUBKTNV-1">
          <mxGeometry x="745" y="280" width="110" height="30" as="geometry" />
        </mxCell>
        <mxCell id="5PsMOc1oZoJgJ5Payypp-56" style="edgeStyle=orthogonalEdgeStyle;curved=0;rounded=1;sketch=0;orthogonalLoop=1;jettySize=auto;html=1;fontColor=#1D3557;strokeColor=#457B9D;fillColor=#A8DADC;" edge="1" parent="WIyWlLk6GJQsqaUBKTNV-1" source="5PsMOc1oZoJgJ5Payypp-53" target="5PsMOc1oZoJgJ5Payypp-47">
          <mxGeometry relative="1" as="geometry" />
        </mxCell>
        <mxCell id="5PsMOc1oZoJgJ5Payypp-53" value="original socket used only for accepting connections" style="ellipse;shape=cloud;whiteSpace=wrap;html=1;rounded=0;sketch=0;fontColor=#1D3557;strokeColor=#457B9D;fillColor=#A8DADC;" vertex="1" parent="WIyWlLk6GJQsqaUBKTNV-1">
          <mxGeometry x="699.38" y="340" width="201.25" height="90" as="geometry" />
        </mxCell>
        <mxCell id="5PsMOc1oZoJgJ5Payypp-25" value="socket ID" style="text;html=1;strokeColor=none;fillColor=none;align=center;verticalAlign=middle;whiteSpace=wrap;rounded=0;sketch=0;fontColor=#1D3557;labelBackgroundColor=#D5E8D4;" vertex="1" parent="WIyWlLk6GJQsqaUBKTNV-1">
          <mxGeometry x="306.25" y="5" width="60" height="30" as="geometry" />
        </mxCell>
        <mxCell id="5PsMOc1oZoJgJ5Payypp-59" value="" style="edgeStyle=orthogonalEdgeStyle;curved=0;rounded=1;sketch=0;orthogonalLoop=1;jettySize=auto;html=1;entryX=0;entryY=0.5;entryDx=0;entryDy=0;fontColor=#1D3557;strokeColor=#457B9D;fillColor=#A8DADC;startArrow=none;endArrow=none;exitX=1.004;exitY=0.385;exitDx=0;exitDy=0;exitPerimeter=0;" edge="1" parent="WIyWlLk6GJQsqaUBKTNV-1" source="5PsMOc1oZoJgJ5Payypp-15" target="5PsMOc1oZoJgJ5Payypp-25">
          <mxGeometry relative="1" as="geometry">
            <mxPoint x="280" y="240" as="sourcePoint" />
            <mxPoint x="387.5" y="20" as="targetPoint" />
            <Array as="points">
              <mxPoint x="290" y="240" />
              <mxPoint x="290" y="20" />
            </Array>
          </mxGeometry>
        </mxCell>
        <mxCell id="5PsMOc1oZoJgJ5Payypp-64" value="new&lt;br&gt;socket" style="text;html=1;strokeColor=none;fillColor=none;align=center;verticalAlign=middle;whiteSpace=wrap;rounded=0;sketch=0;fontColor=#1D3557;labelBackgroundColor=#FFF4C3;" vertex="1" parent="WIyWlLk6GJQsqaUBKTNV-1">
          <mxGeometry x="980" y="5" width="60" height="30" as="geometry" />
        </mxCell>
        <mxCell id="5PsMOc1oZoJgJ5Payypp-70" style="edgeStyle=orthogonalEdgeStyle;curved=0;rounded=1;sketch=0;orthogonalLoop=1;jettySize=auto;html=1;entryX=0.5;entryY=0;entryDx=0;entryDy=0;fontColor=#1D3557;strokeColor=#d6b656;fillColor=#fff2cc;" edge="1" parent="WIyWlLk6GJQsqaUBKTNV-1" source="5PsMOc1oZoJgJ5Payypp-67" target="5PsMOc1oZoJgJ5Payypp-69">
          <mxGeometry relative="1" as="geometry" />
        </mxCell>
        <mxCell id="5PsMOc1oZoJgJ5Payypp-67" value="Read from socket" style="rounded=1;whiteSpace=wrap;html=1;fontSize=12;glass=0;strokeWidth=1;shadow=0;fillColor=#fff2cc;strokeColor=#d6b656;" vertex="1" parent="WIyWlLk6GJQsqaUBKTNV-1">
          <mxGeometry x="1050" y="160" width="120" height="40" as="geometry" />
        </mxCell>
        <mxCell id="5PsMOc1oZoJgJ5Payypp-78" style="edgeStyle=orthogonalEdgeStyle;curved=0;rounded=1;sketch=0;orthogonalLoop=1;jettySize=auto;html=1;entryX=0.5;entryY=0;entryDx=0;entryDy=0;fontColor=#1D3557;strokeColor=#d6b656;fillColor=#fff2cc;" edge="1" parent="WIyWlLk6GJQsqaUBKTNV-1" source="5PsMOc1oZoJgJ5Payypp-69" target="5PsMOc1oZoJgJ5Payypp-5">
          <mxGeometry relative="1" as="geometry" />
        </mxCell>
        <mxCell id="5PsMOc1oZoJgJ5Payypp-69" value="Write to socket" style="rounded=1;whiteSpace=wrap;html=1;fontSize=12;glass=0;strokeWidth=1;shadow=0;fillColor=#fff2cc;strokeColor=#d6b656;" vertex="1" parent="WIyWlLk6GJQsqaUBKTNV-1">
          <mxGeometry x="1050" y="280" width="120" height="40" as="geometry" />
        </mxCell>
        <mxCell id="5PsMOc1oZoJgJ5Payypp-87" style="edgeStyle=orthogonalEdgeStyle;curved=0;rounded=1;sketch=0;orthogonalLoop=1;jettySize=auto;html=1;entryX=0.484;entryY=1.042;entryDx=0;entryDy=0;entryPerimeter=0;fontColor=#000000;strokeColor=#d6b656;fillColor=#fff2cc;" edge="1" parent="WIyWlLk6GJQsqaUBKTNV-1" source="5PsMOc1oZoJgJ5Payypp-84" target="5PsMOc1oZoJgJ5Payypp-48">
          <mxGeometry relative="1" as="geometry">
            <Array as="points">
              <mxPoint x="796" y="610" />
            </Array>
          </mxGeometry>
        </mxCell>
        <mxCell id="5PsMOc1oZoJgJ5Payypp-84" value="looping" style="ellipse;shape=cloud;whiteSpace=wrap;html=1;rounded=0;sketch=0;strokeColor=#d6b656;fillColor=#fff2cc;" vertex="1" parent="WIyWlLk6GJQsqaUBKTNV-1">
          <mxGeometry x="920" y="585" width="140" height="50" as="geometry" />
        </mxCell>
      </root>
    </mxGraphModel>
  </diagram>
</mxfile>
